<svg width="24" height="24" viewBox="0 0 24 24" fill="none" xmlns="http://www.w3.org/2000/svg">
<g clip-path="url(#clip0_31_175)">
<path d="M23.766 12.2764C23.766 11.4607 23.6999 10.6406 23.5588 9.83807H12.24V14.4591H18.7217C18.4528 15.9494 17.5885 17.2678 16.323 18.1056V21.1039H20.19C22.4608 19.0139 23.766 15.9274 23.766 12.2764Z" fill="#4285F4"/>
<path d="M12.2399 24.0008C15.4763 24.0008 18.2057 22.9382 20.1943 21.1039L16.3273 18.1055C15.2514 18.8375 13.8625 19.252 12.2443 19.252C9.11364 19.252 6.45922 17.1399 5.5068 14.3003H1.51636V17.3912C3.55347 21.4434 7.70265 24.0008 12.2399 24.0008Z" fill="#34A853"/>
<path d="M5.50253 14.3003C4.99986 12.8099 4.99986 11.1961 5.50253 9.70575V6.61481H1.51649C-0.18551 10.0056 -0.18551 14.0004 1.51649 17.3912L5.50253 14.3003Z" fill="#FBBC04"/>
<path d="M12.2399 4.74966C13.9507 4.72321 15.6042 5.36697 16.8432 6.54867L20.2692 3.12262C18.0999 1.08551 15.2206 -0.034466 12.2399 0.000808666C7.70265 0.000808666 3.55347 2.55822 1.51636 6.61481L5.50239 9.70575C6.4504 6.86173 9.10923 4.74966 12.2399 4.74966Z" fill="#EA4335"/>
</g>
<defs>
<clipPath id="clip0_31_175">
<rect width="24" height="24" fill="white"/>
</clipPath>
</defs>
</svg>
