<svg width="152" height="115" viewBox="0 0 152 115" fill="none" xmlns="http://www.w3.org/2000/svg">
<path fill-rule="evenodd" clip-rule="evenodd" d="M82.442 34.0821C81.978 35.9281 82.843 37.8341 83.282 39.6021C86.027 50.6841 88.979 62.0631 91.922 73.3221C92.408 75.1831 92.989 77.1701 93.242 78.9621C94.809 90.0651 91.79 101.674 86.402 108.362C83.388 112.101 77.68 116.325 71.402 114.481C61.344 111.53 55.983 99.4101 55.322 87.3621C54.962 80.7991 56.878 74.8941 58.561 69.0021C61.076 60.2051 62.984 51.5001 65.521 42.7221C66.347 39.8661 67.528 37.1051 67.561 34.2021C63.24 35.1631 59.61 36.6441 55.921 38.0421C46.453 41.6291 37.365 45.0571 27.241 48.6021C25.278 49.2891 23.128 50.5361 21.481 50.6421C19.356 50.7791 16.123 49.5441 14.64 48.4821C9.33699 44.6821 4.95299 36.1361 2.99999 28.8021C1.11999 21.7331 -2.15601 8.54914 2.04199 2.64314C3.87999 0.0571382 8.29099 -0.730862 12.242 0.723138C14.295 1.47914 16.567 3.04914 18.721 4.32314C29.134 10.4831 39.596 16.6971 50.282 22.8031C54.582 25.2611 58.586 28.2661 62.882 30.2431C65.553 31.4721 68.464 32.6131 71.522 33.0031C79.035 33.9631 85.667 30.9521 90.842 28.0831C103.927 20.8301 116.177 12.6261 129.363 5.64314C132.013 4.23914 134.559 2.40614 137.163 1.32314C144.27 -1.63386 150.558 1.02114 151.323 8.76314C151.79 13.4991 150.352 17.7301 149.522 21.9631C148.704 26.1411 147.422 29.5641 145.802 33.3631C143.06 39.7991 138.665 47.5141 132.122 49.9231C128.357 51.3091 125.904 49.4791 122.762 48.3631C113.116 44.9391 103.597 41.4391 94.082 38.0431C90.273 36.6831 86.673 35.0481 82.442 34.0821Z" fill="url(#paint0_linear_90_58)"/>
<path fill-rule="evenodd" clip-rule="evenodd" d="M89.8818 42.7222C95.5438 44.5282 102.383 46.8872 108.122 49.2022C114.244 51.6722 120.476 53.3482 125.642 55.9222C132.315 59.2472 137.451 69.2742 133.203 78.7222C129.567 86.8082 119.335 93.7392 108.123 88.5622C99.1218 84.4072 97.2698 73.1462 94.6828 62.5222C93.0478 55.8132 91.3528 49.5072 89.8818 42.7222Z" fill="url(#paint1_linear_90_58)"/>
<path fill-rule="evenodd" clip-rule="evenodd" d="M58.9215 42.9622C59.1945 42.9722 59.6845 42.4602 59.6415 43.6822C59.6035 44.7952 59.2235 44.9602 59.2825 44.7622C56.8775 52.8922 54.9495 61.8152 52.6815 70.0822C50.9735 76.3102 49.4655 82.2002 45.2425 85.8022C40.2645 90.0462 32.0355 92.1222 25.2025 88.6822C20.6805 86.4062 16.8235 81.6482 15.4825 76.3232C14.0395 70.5952 15.9185 64.8672 18.3625 61.3232C19.8085 59.2252 21.8425 56.8252 24.1225 55.6832C26.8645 54.3082 30.0385 53.6452 32.8825 52.5632C38.7965 50.3122 44.1065 48.2282 50.0425 46.0832C52.8555 45.0662 55.6525 43.8432 58.6825 42.9632C58.7455 42.9442 58.8535 42.9602 58.9215 42.9622Z" fill="url(#paint2_linear_90_58)"/>
<defs>
<linearGradient id="paint0_linear_90_58" x1="75.7071" y1="0" x2="75.7071" y2="114.928" gradientUnits="userSpaceOnUse">
<stop stop-color="#D96F62"/>
<stop offset="1" stop-color="#733B34"/>
</linearGradient>
<linearGradient id="paint1_linear_90_58" x1="112.317" y1="42.7222" x2="112.317" y2="90.3488" gradientUnits="userSpaceOnUse">
<stop stop-color="#D96F62"/>
<stop offset="1" stop-color="#733B34"/>
</linearGradient>
<linearGradient id="paint2_linear_90_58" x1="37.3118" y1="42.8641" x2="37.3118" y2="90.4106" gradientUnits="userSpaceOnUse">
<stop stop-color="#D96F62"/>
<stop offset="1" stop-color="#733B34"/>
</linearGradient>
</defs>
</svg>
