<svg width="80" height="61" viewBox="0 0 80 61" fill="none" xmlns="http://www.w3.org/2000/svg">
<path fill-rule="evenodd" clip-rule="evenodd" d="M43.5584 18.0074C43.3132 18.9827 43.7703 19.9897 44.0022 20.9239C45.4525 26.7791 47.0122 32.7912 48.5672 38.7399C48.824 39.7232 49.1309 40.773 49.2646 41.7198C50.0925 47.5861 48.4974 53.7198 45.6507 57.2534C44.0582 59.2289 41.0424 61.4606 37.7254 60.4864C32.4112 58.9272 29.5787 52.5236 29.2295 46.158C29.0393 42.6904 30.0516 39.5705 30.9408 36.4574C32.2696 31.8095 33.2777 27.2102 34.6182 22.5723C35.0546 21.0634 35.6786 19.6046 35.696 18.0708C33.413 18.5785 31.4951 19.361 29.546 20.0996C24.5435 21.9948 19.7419 23.806 14.3928 25.679C13.3557 26.042 12.2197 26.7009 11.3495 26.7569C10.2268 26.8293 8.51862 26.1768 7.73507 25.6156C4.93322 23.6079 2.61692 19.0926 1.58505 15.2177C0.591747 11.4828 -1.13913 4.51696 1.07889 1.39651C2.05 0.0301891 4.38056 -0.386153 6.46808 0.382072C7.55279 0.781506 8.7532 1.61102 9.89127 2.28414C15.393 5.53879 20.9206 8.82197 26.5666 12.0481C28.8385 13.3468 30.954 14.9345 33.2238 15.979C34.6351 16.6284 36.1731 17.2312 37.7888 17.4373C41.7583 17.9445 45.2623 16.3536 47.9966 14.8378C54.9101 11.0056 61.3824 6.67105 68.3492 2.98156C69.7494 2.23976 71.0945 1.27129 72.4704 0.699083C76.2254 -0.863255 79.5476 0.53952 79.9518 4.63002C80.1986 7.1323 79.4388 9.36776 79.0003 11.6043C78.5681 13.8117 77.8907 15.6203 77.0348 17.6275C75.5861 21.028 73.2639 25.1042 69.8069 26.377C67.8177 27.1093 66.5216 26.1424 64.8616 25.5528C59.7651 23.7437 54.7357 21.8945 49.7084 20.1002C47.6959 19.3816 45.7939 18.5178 43.5584 18.0074Z" fill="white"/>
<path fill-rule="evenodd" clip-rule="evenodd" d="M47.4902 22.5723C50.4818 23.5265 54.0952 24.7729 57.1274 25.996C60.3619 27.301 63.6546 28.1865 66.3841 29.5465C69.9098 31.3033 72.6234 36.6011 70.379 41.5929C68.4579 45.8652 63.0518 49.5272 57.1279 46.7919C52.3722 44.5966 51.3937 38.6469 50.0269 33.0336C49.163 29.4889 48.2674 26.1571 47.4902 22.5723Z" fill="white"/>
<path fill-rule="evenodd" clip-rule="evenodd" d="M31.1309 22.6993C31.2752 22.7046 31.5341 22.434 31.5114 23.0797C31.4913 23.6677 31.2905 23.7549 31.3217 23.6503C30.051 27.9458 29.0323 32.6603 27.834 37.0282C26.9316 40.3188 26.1348 43.4308 23.9036 45.3339C21.2735 47.5762 16.9257 48.6731 13.3154 46.8555C10.9262 45.653 8.88837 43.1391 8.17985 40.3256C7.41744 37.2992 8.41021 34.2728 9.7015 32.4003C10.4655 31.2919 11.5402 30.0238 12.7448 29.4204C14.1936 28.6939 15.8705 28.3437 17.3732 27.772C20.4979 26.5827 23.3034 25.4816 26.4397 24.3483C27.926 23.8109 29.4038 23.1647 31.0047 22.6998C31.0379 22.6898 31.095 22.6982 31.1309 22.6993Z" fill="white"/>
</svg>
